<?xml version="1.0" standalone="no"?>
<!DOCTYPE svg PUBLIC "-//W3C//DTD SVG 20010904//EN"
 "http://www.w3.org/TR/2001/REC-SVG-20010904/DTD/svg10.dtd">
<svg version="1.0" xmlns="http://www.w3.org/2000/svg"
 width="927.000000pt" height="164.000000pt" viewBox="0 0 927.000000 164.000000"
 preserveAspectRatio="xMidYMid meet">

<g transform="translate(0.000000,164.000000) scale(0.100000,-0.100000)"
fill="#000000" stroke="none">
<path d="M930 1553 c-199 -23 -322 -105 -372 -251 -21 -60 -23 -85 -23 -247 0
-176 1 -181 28 -236 68 -140 203 -206 467 -229 204 -17 190 -12 190 -74 0 -52
-1 -54 -31 -60 -64 -13 -351 -6 -458 11 -58 9 -119 17 -136 17 l-30 1 -31
-183 -31 -184 21 -8 c35 -13 243 -40 391 -51 155 -12 373 0 482 26 135 32 210
89 262 199 41 87 54 164 49 307 -3 111 -7 131 -32 186 -71 156 -227 227 -576
261 l-75 7 -3 57 -3 56 88 7 c102 9 272 1 391 -19 45 -7 82 -13 82 -12 1 0 14
82 29 181 18 112 25 182 19 186 -18 11 -202 40 -312 50 -109 8 -317 10 -386 2z"/>
<path d="M1857 1533 c-4 -3 -7 -330 -7 -725 l0 -718 510 0 509 0 3 181 c2 99
1 183 -1 185 -2 2 -130 4 -283 4 l-279 0 3 88 3 87 225 2 225 2 3 165 2 166
-230 0 -230 0 0 100 0 100 248 0 248 0 27 173 c15 94 27 178 27 185 0 9 -106
12 -498 12 -274 0 -502 -3 -505 -7z"/>
<path d="M3037 1534 c-4 -4 -7 -331 -7 -726 l0 -718 460 0 460 0 0 185 0 185
-230 0 -230 0 -2 538 -3 537 -221 3 c-121 1 -223 -1 -227 -4z"/>
<path d="M4047 1534 c-4 -4 -7 -331 -7 -726 l0 -718 460 0 460 0 0 185 0 185
-230 0 -230 0 -2 538 -3 537 -221 3 c-121 1 -223 -1 -227 -4z"/>
<path d="M5597 1534 c-4 -4 -7 -331 -7 -726 l0 -718 460 0 460 0 0 185 0 185
-230 0 -230 0 -2 538 -3 537 -221 3 c-121 1 -223 -1 -227 -4z"/>
<path d="M6570 1043 c0 -531 6 -621 49 -735 27 -70 92 -145 158 -180 177 -96
608 -99 803 -6 55 27 122 92 150 148 12 23 31 76 42 118 21 73 22 104 26 615
l4 537 -229 -2 -228 -3 -5 -515 c-3 -283 -9 -522 -13 -531 -15 -30 -56 -39
-177 -39 l-120 0 -2 543 -3 542 -227 3 -228 2 0 -497z"/>
<path d="M7854 1527 c-4 -11 217 -925 323 -1335 l26 -102 336 2 335 3 79 320
c44 176 123 498 177 715 54 217 95 398 91 403 -4 4 -113 6 -241 5 l-234 -3
-12 -50 c-6 -27 -23 -104 -37 -170 -15 -66 -49 -226 -77 -355 -63 -295 -73
-335 -85 -335 -9 0 -29 82 -99 415 -21 96 -53 246 -72 332 -19 86 -34 159 -34
162 0 4 -106 6 -235 6 -186 0 -237 -3 -241 -13z"/>
</g>
</svg>
